<?xml version="1.0" encoding="UTF-8"?>
<svg xmlns="http://www.w3.org/2000/svg" width="1600" height="1200" viewBox="0 0 1600 1200" role="img" aria-labelledby="title description">
  <title id="title">Campionato Italiano Drifting 2026 — Prato event car park</title>
  <desc id="description">Original evidence-based redraw of the 2026 Campionato Italiano Drifting Rd.2 course at Prato event car park.</desc>
  <metadata>{&quot;track_id&quot;:&quot;it-prato-prato-event-car-park-campionato-italiano-drifting-2026&quot;,&quot;event&quot;:&quot;Campionato Italiano Drifting Rd.2&quot;,&quot;year&quot;:2026,&quot;venue&quot;:&quot;Prato event car park&quot;,&quot;evidence_status&quot;:&quot;source-threshold-met&quot;,&quot;source_ids&quot;:[&quot;it-prato-prato-event-car-park-campionato-italiano-drifting-2026-route-1&quot;,&quot;it-prato-prato-event-car-park-campionato-italiano-drifting-2026-venue&quot;]}</metadata>
  <g id="background"></g>
  <g id="context" fill="none" stroke="#CBD2D9" stroke-width="16" stroke-linecap="round" stroke-linejoin="round" opacity="0.4"></g>
  <g id="course" fill="none" stroke-linecap="round" stroke-linejoin="round">
    <path d="M 1174.4 132 C 1180.50 153.35, 1216.00 234.89, 1216 277.6 C 1216.00 320.31, 1195.75 386.59, 1174.4 423.2 C 1153.05 459.81, 1105.48 508.90, 1070.4 527.2 C 1035.32 545.50, 973.33 554.10, 935.2 548 C 897.07 541.90, 842.43 510.01, 810.4 485.6 C 778.37 461.19, 741.21 413.63, 716.8 381.6 C 692.39 349.57, 669.93 290.08, 644 267.2 C 618.07 244.32, 570.51 222.55, 540 225.6 C 509.49 228.65, 458.88 257.49, 436 288 C 413.12 318.51, 387.05 387.84, 384 433.6 C 380.95 479.36, 396.90 555.77, 415.2 600 C 433.50 644.23, 475.24 703.17, 508.8 735.2 C 542.36 767.23, 601.29 798.57, 644 818.4 C 686.71 838.23, 760.34 850.57, 800 870.4 C 839.66 890.23, 893.05 924.62, 914.4 953.6 C 935.75 982.58, 941.02 1051.22, 945.6 1068" stroke="#111827" stroke-width="52"/>
    <path d="M 1174.4 132 C 1180.50 153.35, 1216.00 234.89, 1216 277.6 C 1216.00 320.31, 1195.75 386.59, 1174.4 423.2 C 1153.05 459.81, 1105.48 508.90, 1070.4 527.2 C 1035.32 545.50, 973.33 554.10, 935.2 548 C 897.07 541.90, 842.43 510.01, 810.4 485.6 C 778.37 461.19, 741.21 413.63, 716.8 381.6 C 692.39 349.57, 669.93 290.08, 644 267.2 C 618.07 244.32, 570.51 222.55, 540 225.6 C 509.49 228.65, 458.88 257.49, 436 288 C 413.12 318.51, 387.05 387.84, 384 433.6 C 380.95 479.36, 396.90 555.77, 415.2 600 C 433.50 644.23, 475.24 703.17, 508.8 735.2 C 542.36 767.23, 601.29 798.57, 644 818.4 C 686.71 838.23, 760.34 850.57, 800 870.4 C 839.66 890.23, 893.05 924.62, 914.4 953.6 C 935.75 982.58, 941.02 1051.22, 945.6 1068" stroke="#F8FAFC" stroke-width="4" opacity="0.6"/>
  </g>
  <g id="zones"><circle cx="810.4" cy="485.6" r="29" fill="none" stroke="#A855F7" stroke-width="10"/><circle cx="540" cy="225.6" r="29" fill="none" stroke="#F59E0B" stroke-width="10"/><circle cx="415.2" cy="600" r="29" fill="none" stroke="#A855F7" stroke-width="10"/><circle cx="800" cy="870.4" r="29" fill="none" stroke="#F59E0B" stroke-width="10"/></g>
  <g id="markers"><polygon points="907.5516623063323,543.5762659690132 959.372546669321,523.5114723284657 950.5250786073473,578.8081477158012" fill="#22C55E" stroke="#FFFFFF" stroke-width="4" stroke-linejoin="round"/><polygon points="512.1389586741203,228.38610413258797 557.1146396716118,195.7488842937003 562.6868479367878,251.47096694545974" fill="#22C55E" stroke="#FFFFFF" stroke-width="4" stroke-linejoin="round"/><polygon points="529.05395523602,754.53332090711 474.99956821001854,741.6444403023701 513.6662100242386,701.13652983033" fill="#22C55E" stroke="#FFFFFF" stroke-width="4" stroke-linejoin="round"/><circle cx="1174.4" cy="132" r="18" fill="#22C55E" stroke="#FFFFFF" stroke-width="5"/><text x="1174.4" y="140" fill="#FFFFFF" text-anchor="middle" font-family="Arial, sans-serif" font-size="24" font-weight="700">S</text><circle cx="945.6" cy="1068" r="18" fill="#EF4444" stroke="#FFFFFF" stroke-width="5"/><text x="945.6" y="1076" fill="#FFFFFF" text-anchor="middle" font-family="Arial, sans-serif" font-size="24" font-weight="700">F</text></g>
  <g id="labels"></g>
</svg>